<svg xmlns="http://www.w3.org/2000/svg" xmlns:svg="http://www.w3.org/2000/svg" id="svg10" width="258" height="215" fill="none" version="1.1" viewBox="0 0 258 215"><path id="path2" fill="#FBFCFD" d="M0 16.9058C0 9.36329 0 5.59205 2.34315 3.24891C4.68629 0.905762 8.45753 0.905762 16 0.905762H242C249.542 0.905762 253.314 0.905762 255.657 3.24891C258 5.59205 258 9.36329 258 16.9058V198.906C258 206.448 258 210.219 255.657 212.563C253.314 214.906 249.542 214.906 242 214.906H16C8.45753 214.906 4.68629 214.906 2.34315 212.563C0 210.219 0 206.448 0 198.906V16.9058Z" style="fill:#fdfeff;fill-opacity:.1"/><path id="path4" stroke="#1e7ee5" stroke-linecap="round" stroke-linejoin="round" d="m 240.42153,15.664105 h -14 c -1.105,0 -2,0.8954 -2,2.0002 v 14 c 0,1.104 0.895,2 2,2 h 14 c 1.105,0 2,-0.896 2,-2 v -14 c 0,-1.1048 -0.895,-2.0002 -2,-2.0002 z" style="stroke:#fff;stroke-opacity:1"/><path id="path6" stroke="#1e7ee5" stroke-linecap="round" stroke-linejoin="round" d="m 229.92153,22.664305 c 0.828,0 1.5,-0.672 1.5,-1.5 0,-0.829 -0.672,-1.5 -1.5,-1.5 -0.828,0 -1.5,0.671 -1.5,1.5 0,0.828 0.672,1.5 1.5,1.5 z" style="stroke:#fff;stroke-opacity:1"/><path id="path8" stroke="#1e7ee5" stroke-linecap="round" stroke-linejoin="round" d="m 242.42153,27.664305 -5,-5 -11,11" style="stroke:#fff;stroke-opacity:1"/><text style="font-style:normal;font-weight:400;font-size:40px;line-height:1.25;font-family:sans-serif;text-align:center;text-anchor:middle;fill:#000;fill-opacity:1;stroke:none" id="text2485" x="130.015" y="84.227" xml:space="preserve"><tspan id="tspan2489" x="130.015" y="84.227" style="fill:#fefefe;fill-opacity:1">Onboarding</tspan><tspan id="tspan3897" x="130.015" y="134.227" style="fill:#fefefe;fill-opacity:1">art</tspan><tspan id="tspan3899" x="130.015" y="184.227" style="fill:#fefefe;fill-opacity:1">3</tspan></text></svg>